# xmcd
#
# Track frame offsets: 
#        150
#        12189
#        25949
#        39574
#        48968
#        68753
#        81389
#        96047
#        106365
#        115579
#        139034
#        150821
#        161703
#        178884
#        189796
#
# Disc length: 2755 seconds
#
# Revision: 1
# Processed by: cddbd v1.5.2PL0 Copyright (c) Steve Scherf et al.
# Submitted via: ExactAudioCopy v0.99pb3
#
DISCID=b20ac10f
DTITLE=David Allen - Color Blind
DYEAR=1969
DGENRE=Blues
TTITLE0=Terp
TTITLE1=How Can You Be So Cold
TTITLE2=Baby, Please Don't Try To Tell Me What To Do
TTITLE3=Dave's Blues
TTITLE4=Lord Have Mercy
TTITLE5=Goin' Back to Houston
TTITLE6=Poor Soul
TTITLE7=Livin' in a World of Darkness
TTITLE8=Bone's Home
TTITLE9=Midnight Hour Blues
TTITLE10=Goin' to St. Louis
TTITLE11=C.C. Rider
TTITLE12=Saturday A.M. Blues
TTITLE13=Breakfast In Bed
TTITLE14=All In My Mind
EXTD=
EXTT0=
EXTT1=
EXTT2=
EXTT3=
EXTT4=
EXTT5=
EXTT6=
EXTT7=
EXTT8=
EXTT9=
EXTT10=
EXTT11=
EXTT12=
EXTT13=
EXTT14=
PLAYORDER=
